<svg width="175" height="33" viewBox="0 0 175 33" fill="none" xmlns="http://www.w3.org/2000/svg">
<path d="M42.7773 26V6.09375H48.9023C50.6523 6.09375 52.2155 6.49023 53.5918 7.2832C54.9772 8.06706 56.0573 9.18815 56.832 10.6465C57.6068 12.0957 57.9941 13.7454 57.9941 15.5957V16.5117C57.9941 18.362 57.6113 20.0072 56.8457 21.4473C56.0892 22.8874 55.0182 24.0039 53.6328 24.7969C52.2474 25.5898 50.6842 25.9909 48.9434 26H42.7773ZM46.8789 9.41602V22.7051H48.8613C50.4655 22.7051 51.6914 22.181 52.5391 21.1328C53.3867 20.0846 53.8197 18.5853 53.8379 16.6348V15.582C53.8379 13.5586 53.4186 12.0273 52.5801 10.9883C51.7415 9.9401 50.5156 9.41602 48.9023 9.41602H46.8789ZM67.5371 26.2734C65.3678 26.2734 63.5996 25.6081 62.2324 24.2773C60.8743 22.9466 60.1953 21.1738 60.1953 18.959V18.5762C60.1953 17.0905 60.4824 15.7643 61.0566 14.5977C61.6309 13.4219 62.4421 12.5195 63.4902 11.8906C64.5475 11.2526 65.7507 10.9336 67.0996 10.9336C69.123 10.9336 70.7135 11.5716 71.8711 12.8477C73.0378 14.1237 73.6211 15.9329 73.6211 18.2754V19.8887H64.2012C64.3288 20.8548 64.7116 21.6296 65.3496 22.2129C65.9967 22.7962 66.8125 23.0879 67.7969 23.0879C69.319 23.0879 70.5085 22.5365 71.3652 21.4336L73.3066 23.6074C72.7142 24.446 71.9121 25.1022 70.9004 25.5762C69.8887 26.041 68.7676 26.2734 67.5371 26.2734ZM67.0859 14.1328C66.3021 14.1328 65.6641 14.3971 65.1719 14.9258C64.6888 15.4544 64.3789 16.2109 64.2422 17.1953H69.7383V16.8809C69.7201 16.0059 69.4831 15.3314 69.0273 14.8574C68.5716 14.3743 67.9245 14.1328 67.0859 14.1328ZM81.2227 21.1738L83.9707 11.207H88.0996L83.1094 26H79.3359L74.3457 11.207H78.4746L81.2227 21.1738Z" fill="#EA10C7"/>
<path d="M100.432 20.7773C100.432 20.0026 100.158 19.4102 99.6113 19C99.0645 18.5807 98.0801 18.1432 96.6582 17.6875C95.2363 17.2227 94.1107 16.7669 93.2812 16.3203C91.0208 15.099 89.8906 13.4538 89.8906 11.3848C89.8906 10.3092 90.1914 9.35221 90.793 8.51367C91.4036 7.66602 92.2741 7.00521 93.4043 6.53125C94.5436 6.05729 95.8197 5.82031 97.2324 5.82031C98.6543 5.82031 99.9212 6.08008 101.033 6.59961C102.145 7.11003 103.007 7.83464 103.617 8.77344C104.237 9.71224 104.547 10.7786 104.547 11.9727H100.445C100.445 11.0612 100.158 10.3548 99.584 9.85352C99.0098 9.3431 98.2031 9.08789 97.1641 9.08789C96.1615 9.08789 95.3822 9.30208 94.8262 9.73047C94.2702 10.1497 93.9922 10.7057 93.9922 11.3984C93.9922 12.0456 94.3158 12.5879 94.9629 13.0254C95.6191 13.4629 96.5807 13.873 97.8477 14.2559C100.181 14.9577 101.881 15.8281 102.947 16.8672C104.014 17.9062 104.547 19.2005 104.547 20.75C104.547 22.4727 103.895 23.8262 102.592 24.8105C101.288 25.7858 99.5339 26.2734 97.3281 26.2734C95.7969 26.2734 94.4023 25.9954 93.1445 25.4395C91.8867 24.8743 90.9251 24.1042 90.2598 23.1289C89.6035 22.1536 89.2754 21.0234 89.2754 19.7383H93.3906C93.3906 21.9349 94.7031 23.0332 97.3281 23.0332C98.3034 23.0332 99.0645 22.8372 99.6113 22.4453C100.158 22.0443 100.432 21.4883 100.432 20.7773ZM113.229 23.0879C113.958 23.0879 114.55 22.8874 115.006 22.4863C115.462 22.0853 115.699 21.5521 115.717 20.8867H119.422C119.413 21.8893 119.139 22.8099 118.602 23.6484C118.064 24.4779 117.326 25.125 116.387 25.5898C115.457 26.0456 114.427 26.2734 113.297 26.2734C111.182 26.2734 109.514 25.6035 108.293 24.2637C107.072 22.9147 106.461 21.0553 106.461 18.6855V18.4258C106.461 16.1471 107.067 14.3288 108.279 12.9707C109.492 11.6126 111.155 10.9336 113.27 10.9336C115.12 10.9336 116.601 11.4622 117.713 12.5195C118.834 13.5677 119.404 14.9668 119.422 16.7168H115.717C115.699 15.9512 115.462 15.3314 115.006 14.8574C114.55 14.3743 113.949 14.1328 113.201 14.1328C112.281 14.1328 111.583 14.4701 111.109 15.1445C110.645 15.8099 110.412 16.8945 110.412 18.3984V18.8086C110.412 20.3307 110.645 21.4245 111.109 22.0898C111.574 22.7552 112.281 23.0879 113.229 23.0879ZM125.533 12.8203C126.581 11.5625 127.898 10.9336 129.484 10.9336C132.693 10.9336 134.32 12.7975 134.365 16.5254V26H130.414V16.6348C130.414 15.7871 130.232 15.1628 129.867 14.7617C129.503 14.3516 128.896 14.1465 128.049 14.1465C126.891 14.1465 126.053 14.5931 125.533 15.4863V26H121.582V5H125.533V12.8203ZM136.73 18.4668C136.73 16.9993 137.013 15.6914 137.578 14.543C138.143 13.3945 138.954 12.5059 140.012 11.877C141.078 11.248 142.313 10.9336 143.717 10.9336C145.713 10.9336 147.34 11.5443 148.598 12.7656C149.865 13.987 150.571 15.6458 150.717 17.7422L150.744 18.7539C150.744 21.0234 150.111 22.8464 148.844 24.2227C147.577 25.5898 145.877 26.2734 143.744 26.2734C141.611 26.2734 139.907 25.5898 138.631 24.2227C137.364 22.8555 136.73 20.9961 136.73 18.6445V18.4668ZM140.682 18.7539C140.682 20.1576 140.946 21.2331 141.475 21.9805C142.003 22.7188 142.76 23.0879 143.744 23.0879C144.701 23.0879 145.449 22.7233 145.986 21.9941C146.524 21.2559 146.793 20.0801 146.793 18.4668C146.793 17.0905 146.524 16.0241 145.986 15.2676C145.449 14.5111 144.692 14.1328 143.717 14.1328C142.751 14.1328 142.003 14.5111 141.475 15.2676C140.946 16.015 140.682 17.1771 140.682 18.7539ZM152.562 18.4668C152.562 16.9993 152.845 15.6914 153.41 14.543C153.975 13.3945 154.786 12.5059 155.844 11.877C156.91 11.248 158.145 10.9336 159.549 10.9336C161.545 10.9336 163.172 11.5443 164.43 12.7656C165.697 13.987 166.403 15.6458 166.549 17.7422L166.576 18.7539C166.576 21.0234 165.943 22.8464 164.676 24.2227C163.409 25.5898 161.709 26.2734 159.576 26.2734C157.443 26.2734 155.739 25.5898 154.463 24.2227C153.196 22.8555 152.562 20.9961 152.562 18.6445V18.4668ZM156.514 18.7539C156.514 20.1576 156.778 21.2331 157.307 21.9805C157.835 22.7188 158.592 23.0879 159.576 23.0879C160.533 23.0879 161.281 22.7233 161.818 21.9941C162.356 21.2559 162.625 20.0801 162.625 18.4668C162.625 17.0905 162.356 16.0241 161.818 15.2676C161.281 14.5111 160.524 14.1328 159.549 14.1328C158.583 14.1328 157.835 14.5111 157.307 15.2676C156.778 16.015 156.514 17.1771 156.514 18.7539ZM173.18 26H169.215V5H173.18V26Z" fill="white"/>
<path d="M5.33331 26C5.33331 25.1159 5.6845 24.2681 6.30962 23.643C6.93474 23.0178 7.78259 22.6667 8.66665 22.6667H26.6666" stroke="#DB21BD" stroke-width="2" stroke-linecap="round" stroke-linejoin="round"/>
<path d="M8.66665 2.66666H26.6666V29.3333H8.66665C7.78259 29.3333 6.93474 28.9821 6.30962 28.357C5.6845 27.7319 5.33331 26.884 5.33331 26V5.99999C5.33331 5.11593 5.6845 4.26809 6.30962 3.64297C6.93474 3.01785 7.78259 2.66666 8.66665 2.66666V2.66666Z" stroke="#DB21BD" stroke-width="2" stroke-linecap="round" stroke-linejoin="round"/>
</svg>
